{
    "asset" : {
        "generator" : "Khronos glTF Blender I/O v1.7.33",
        "version" : "2.0"
    },
    "scene" : 0,
    "scenes" : [
        {
            "name" : "Scene",
            "nodes" : [
                0,
                1
            ]
        }
    ],
    "nodes" : [
        {
            "mesh" : 0,
            "name" : "Cube",
            "scale" : [
                0.9037777781486511,
                0.6698577404022217,
                0.9037777781486511
            ],
            "translation" : [
                0,
                0.1794462949037552,
                0
            ]
        },
        {
            "mesh" : 1,
            "name" : "Resume",
            "rotation" : [
                0.7071068286895752,
                0,
                0,
                0.7071068286895752
            ],
            "translation" : [
                -1.0771827697753906,
                -0.01826472580432892,
                0
            ]
        }
    ],
    "materials" : [
        {
            "doubleSided" : true,
            "name" : "Material",
            "pbrMetallicRoughness" : {
                "baseColorFactor" : [
                    1,
                    0,
                    0.011667761020362377,
                    1
                ],
                "metallicFactor" : 0,
                "roughnessFactor" : 0.4000000059604645
            }
        },
        {
            "doubleSided" : true,
            "name" : "Material.001",
            "pbrMetallicRoughness" : {
                "baseColorFactor" : [
                    0,
                    0,
                    0,
                    1
                ],
                "metallicFactor" : 0,
                "roughnessFactor" : 0.5
            }
        }
    ],
    "meshes" : [
        {
            "name" : "Cube",
            "primitives" : [
                {
                    "attributes" : {
                        "POSITION" : 0,
                        "NORMAL" : 1,
                        "TEXCOORD_0" : 2
                    },
                    "indices" : 3,
                    "material" : 0
                },
                {
                    "attributes" : {
                        "POSITION" : 4,
                        "NORMAL" : 5,
                        "TEXCOORD_0" : 6
                    },
                    "indices" : 7,
                    "material" : 1
                }
            ]
        },
        {
            "name" : "Resume",
            "primitives" : [
                {
                    "attributes" : {
                        "POSITION" : 8,
                        "NORMAL" : 9,
                        "TEXCOORD_0" : 10
                    },
                    "indices" : 11,
                    "material" : 0
                }
            ]
        }
    ],
    "accessors" : [
        {
            "bufferView" : 0,
            "componentType" : 5126,
            "count" : 120,
            "max" : [
                1.6816257238388062,
                1.0506105422973633,
                0.11847896128892899
            ],
            "min" : [
                -1.6816257238388062,
                -1.0506105422973633,
                -0.11847896128892899
            ],
            "type" : "VEC3"
        },
        {
            "bufferView" : 1,
            "componentType" : 5126,
            "count" : 120,
            "type" : "VEC3"
        },
        {
            "bufferView" : 2,
            "componentType" : 5126,
            "count" : 120,
            "type" : "VEC2"
        },
        {
            "bufferView" : 3,
            "componentType" : 5123,
            "count" : 168,
            "type" : "SCALAR"
        },
        {
            "bufferView" : 4,
            "componentType" : 5126,
            "count" : 8,
            "max" : [
                1.6006176471710205,
                1,
                0.015713363885879517
            ],
            "min" : [
                -1.6006176471710205,
                -1,
                -0.04660557955503464
            ],
            "type" : "VEC3"
        },
        {
            "bufferView" : 5,
            "componentType" : 5126,
            "count" : 8,
            "type" : "VEC3"
        },
        {
            "bufferView" : 6,
            "componentType" : 5126,
            "count" : 8,
            "type" : "VEC2"
        },
        {
            "bufferView" : 7,
            "componentType" : 5123,
            "count" : 12,
            "type" : "SCALAR"
        },
        {
            "bufferView" : 8,
            "componentType" : 5126,
            "count" : 27930,
            "max" : [
                2.15449857711792,
                0.05999999865889549,
                0.017699114978313446
            ],
            "min" : [
                0.0652654841542244,
                -0.05999999865889549,
                -0.5519911646842957
            ],
            "type" : "VEC3"
        },
        {
            "bufferView" : 9,
            "componentType" : 5126,
            "count" : 27930,
            "type" : "VEC3"
        },
        {
            "bufferView" : 10,
            "componentType" : 5126,
            "count" : 27930,
            "type" : "VEC2"
        },
        {
            "bufferView" : 11,
            "componentType" : 5123,
            "count" : 50112,
            "type" : "SCALAR"
        }
    ],
    "bufferViews" : [
        {
            "buffer" : 0,
            "byteLength" : 1440,
            "byteOffset" : 0
        },
        {
            "buffer" : 0,
            "byteLength" : 1440,
            "byteOffset" : 1440
        },
        {
            "buffer" : 0,
            "byteLength" : 960,
            "byteOffset" : 2880
        },
        {
            "buffer" : 0,
            "byteLength" : 336,
            "byteOffset" : 3840
        },
        {
            "buffer" : 0,
            "byteLength" : 96,
            "byteOffset" : 4176
        },
        {
            "buffer" : 0,
            "byteLength" : 96,
            "byteOffset" : 4272
        },
        {
            "buffer" : 0,
            "byteLength" : 64,
            "byteOffset" : 4368
        },
        {
            "buffer" : 0,
            "byteLength" : 24,
            "byteOffset" : 4432
        },
        {
            "buffer" : 0,
            "byteLength" : 335160,
            "byteOffset" : 4456
        },
        {
            "buffer" : 0,
            "byteLength" : 335160,
            "byteOffset" : 339616
        },
        {
            "buffer" : 0,
            "byteLength" : 223440,
            "byteOffset" : 674776
        },
        {
            "buffer" : 0,
            "byteLength" : 100224,
            "byteOffset" : 898216
        }
    ],
    "buffers" : [
        {
            "byteLength" : 998440,
            "uri" : "data:application/octet-stream;base64,"
        }
    ]
}
