{
    "asset" : {
        "generator" : "Khronos glTF Blender I/O v1.7.33",
        "version" : "2.0"
    },
    "scene" : 0,
    "scenes" : [
        {
            "name" : "Scene",
            "nodes" : [
                0,
                1
            ]
        }
    ],
    "nodes" : [
        {
            "mesh" : 0,
            "name" : "Text",
            "rotation" : [
                0.7071068286895752,
                0,
                0,
                0.7071068286895752
            ],
            "translation" : [
                0,
                0.9635792374610901,
                0
            ]
        },
        {
            "mesh" : 1,
            "name" : "Cube"
        }
    ],
    "materials" : [
        {
            "doubleSided" : true,
            "name" : "Material.002",
            "pbrMetallicRoughness" : {
                "baseColorFactor" : [
                    0.8000000715255737,
                    0,
                    0.012501684948801994,
                    1
                ],
                "metallicFactor" : 0,
                "roughnessFactor" : 0.5
            }
        },
        {
            "doubleSided" : true,
            "name" : "Material.003",
            "pbrMetallicRoughness" : {
                "baseColorFactor" : [
                    0.8000000715255737,
                    0.09299751371145248,
                    0,
                    1
                ],
                "metallicFactor" : 0,
                "roughnessFactor" : 0.5
            }
        },
        {
            "doubleSided" : true,
            "name" : "Material.004",
            "pbrMetallicRoughness" : {
                "baseColorFactor" : [
                    0.7729771733283997,
                    0.8000000715255737,
                    0,
                    1
                ],
                "metallicFactor" : 0,
                "roughnessFactor" : 0.5
            }
        },
        {
            "doubleSided" : true,
            "name" : "Material.005",
            "pbrMetallicRoughness" : {
                "baseColorFactor" : [
                    0.034160081297159195,
                    0.8000000715255737,
                    0,
                    1
                ],
                "metallicFactor" : 0,
                "roughnessFactor" : 0.5
            }
        },
        {
            "doubleSided" : true,
            "name" : "Material.006",
            "pbrMetallicRoughness" : {
                "baseColorFactor" : [
                    0,
                    0.469502329826355,
                    0.8000000715255737,
                    1
                ],
                "metallicFactor" : 0,
                "roughnessFactor" : 0.5
            }
        },
        {
            "doubleSided" : true,
            "name" : "Material.007",
            "pbrMetallicRoughness" : {
                "baseColorFactor" : [
                    0.15254291892051697,
                    0,
                    0.8000000715255737,
                    1
                ],
                "metallicFactor" : 0,
                "roughnessFactor" : 0.5
            }
        },
        {
            "doubleSided" : true,
            "name" : "Material.008",
            "pbrMetallicRoughness" : {
                "baseColorFactor" : [
                    0,
                    0,
                    0,
                    1
                ],
                "metallicFactor" : 0,
                "roughnessFactor" : 0.5
            }
        },
        {
            "doubleSided" : true,
            "name" : "Material.009",
            "pbrMetallicRoughness" : {
                "baseColorFactor" : [
                    0.8000000715255737,
                    0,
                    0.7485858798027039,
                    1
                ],
                "metallicFactor" : 0,
                "roughnessFactor" : 0.5
            }
        }
    ],
    "meshes" : [
        {
            "name" : "Curve",
            "primitives" : [
                {
                    "attributes" : {
                        "POSITION" : 0,
                        "NORMAL" : 1,
                        "TEXCOORD_0" : 2
                    },
                    "indices" : 3,
                    "material" : 0
                },
                {
                    "attributes" : {
                        "POSITION" : 4,
                        "NORMAL" : 5,
                        "TEXCOORD_0" : 6
                    },
                    "indices" : 7,
                    "material" : 1
                },
                {
                    "attributes" : {
                        "POSITION" : 8,
                        "NORMAL" : 9,
                        "TEXCOORD_0" : 10
                    },
                    "indices" : 11,
                    "material" : 2
                },
                {
                    "attributes" : {
                        "POSITION" : 12,
                        "NORMAL" : 13,
                        "TEXCOORD_0" : 14
                    },
                    "indices" : 15,
                    "material" : 3
                },
                {
                    "attributes" : {
                        "POSITION" : 16,
                        "NORMAL" : 17,
                        "TEXCOORD_0" : 18
                    },
                    "indices" : 19,
                    "material" : 4
                },
                {
                    "attributes" : {
                        "POSITION" : 20,
                        "NORMAL" : 21,
                        "TEXCOORD_0" : 22
                    },
                    "indices" : 23,
                    "material" : 5
                }
            ]
        },
        {
            "name" : "Cube.001",
            "primitives" : [
                {
                    "attributes" : {
                        "POSITION" : 24,
                        "NORMAL" : 25,
                        "TEXCOORD_0" : 26
                    },
                    "indices" : 27,
                    "material" : 6
                },
                {
                    "attributes" : {
                        "POSITION" : 28,
                        "NORMAL" : 29,
                        "TEXCOORD_0" : 30
                    },
                    "indices" : 31,
                    "material" : 7
                }
            ]
        }
    ],
    "accessors" : [
        {
            "bufferView" : 0,
            "componentType" : 5126,
            "count" : 18396,
            "max" : [
                0.8646755218505859,
                0.08999999612569809,
                0.7195428013801575
            ],
            "min" : [
                -1.447271466255188,
                -0.08999999612569809,
                -0.5317109227180481
            ],
            "type" : "VEC3"
        },
        {
            "bufferView" : 1,
            "componentType" : 5126,
            "count" : 18396,
            "type" : "VEC3"
        },
        {
            "bufferView" : 2,
            "componentType" : 5126,
            "count" : 18396,
            "type" : "VEC2"
        },
        {
            "bufferView" : 3,
            "componentType" : 5123,
            "count" : 33180,
            "type" : "SCALAR"
        },
        {
            "bufferView" : 4,
            "componentType" : 5126,
            "count" : 12772,
            "max" : [
                1.179572343826294,
                0.08999999612569809,
                0.722123920917511
            ],
            "min" : [
                -1.0361356735229492,
                -0.08999999612569809,
                -0.3687315583229065
            ],
            "type" : "VEC3"
        },
        {
            "bufferView" : 5,
            "componentType" : 5126,
            "count" : 12772,
            "type" : "VEC3"
        },
        {
            "bufferView" : 6,
            "componentType" : 5126,
            "count" : 12772,
            "type" : "VEC2"
        },
        {
            "bufferView" : 7,
            "componentType" : 5123,
            "count" : 23028,
            "type" : "SCALAR"
        },
        {
            "bufferView" : 8,
            "componentType" : 5126,
            "count" : 16368,
            "max" : [
                1.5973453521728516,
                0.08999999612569809,
                0.7210177183151245
            ],
            "min" : [
                -0.8145281076431274,
                -0.08999999612569809,
                -0.5789085626602173
            ],
            "type" : "VEC3"
        },
        {
            "bufferView" : 9,
            "componentType" : 5126,
            "count" : 16368,
            "type" : "VEC3"
        },
        {
            "bufferView" : 10,
            "componentType" : 5126,
            "count" : 16368,
            "type" : "VEC2"
        },
        {
            "bufferView" : 11,
            "componentType" : 5123,
            "count" : 29412,
            "type" : "SCALAR"
        },
        {
            "bufferView" : 12,
            "componentType" : 5126,
            "count" : 8184,
            "max" : [
                0.42975670099258423,
                0.08999999612569809,
                0.7147493362426758
            ],
            "min" : [
                -0.4373156726360321,
                -0.08999999612569809,
                -0.3561946749687195
            ],
            "type" : "VEC3"
        },
        {
            "bufferView" : 13,
            "componentType" : 5126,
            "count" : 8184,
            "type" : "VEC3"
        },
        {
            "bufferView" : 14,
            "componentType" : 5126,
            "count" : 8184,
            "type" : "VEC2"
        },
        {
            "bufferView" : 15,
            "componentType" : 5123,
            "count" : 14544,
            "type" : "SCALAR"
        },
        {
            "bufferView" : 16,
            "componentType" : 5126,
            "count" : 8208,
            "max" : [
                0.7505531311035156,
                0.08999999612569809,
                0.7154867649078369
            ],
            "min" : [
                -0.012536868453025818,
                -0.08999999612569809,
                -0.3289085626602173
            ],
            "type" : "VEC3"
        },
        {
            "bufferView" : 17,
            "componentType" : 5126,
            "count" : 8208,
            "type" : "VEC3"
        },
        {
            "bufferView" : 18,
            "componentType" : 5126,
            "count" : 8208,
            "type" : "VEC2"
        },
        {
            "bufferView" : 19,
            "componentType" : 5123,
            "count" : 15120,
            "type" : "SCALAR"
        },
        {
            "bufferView" : 20,
            "componentType" : 5126,
            "count" : 10528,
            "max" : [
                1.3515856266021729,
                0.08999999612569809,
                0.722123920917511
            ],
            "min" : [
                0.3222714066505432,
                -0.08999999612569809,
                -0.3639380633831024
            ],
            "type" : "VEC3"
        },
        {
            "bufferView" : 21,
            "componentType" : 5126,
            "count" : 10528,
            "type" : "VEC3"
        },
        {
            "bufferView" : 22,
            "componentType" : 5126,
            "count" : 10528,
            "type" : "VEC2"
        },
        {
            "bufferView" : 23,
            "componentType" : 5123,
            "count" : 18912,
            "type" : "SCALAR"
        },
        {
            "bufferView" : 24,
            "componentType" : 5126,
            "count" : 8,
            "max" : [
                1.771679162979126,
                1.7263437509536743,
                0.015552319586277008
            ],
            "min" : [
                -1.651879072189331,
                -0.11515820771455765,
                -0.05633160471916199
            ],
            "type" : "VEC3"
        },
        {
            "bufferView" : 25,
            "componentType" : 5126,
            "count" : 8,
            "type" : "VEC3"
        },
        {
            "bufferView" : 26,
            "componentType" : 5126,
            "count" : 8,
            "type" : "VEC2"
        },
        {
            "bufferView" : 27,
            "componentType" : 5123,
            "count" : 12,
            "type" : "SCALAR"
        },
        {
            "bufferView" : 28,
            "componentType" : 5126,
            "count" : 88,
            "max" : [
                1.8509281873703003,
                1.8055927753448486,
                0.022917471826076508
            ],
            "min" : [
                -1.7311280965805054,
                -0.19440728425979614,
                -0.06369675695896149
            ],
            "type" : "VEC3"
        },
        {
            "bufferView" : 29,
            "componentType" : 5126,
            "count" : 88,
            "type" : "VEC3"
        },
        {
            "bufferView" : 30,
            "componentType" : 5126,
            "count" : 88,
            "type" : "VEC2"
        },
        {
            "bufferView" : 31,
            "componentType" : 5123,
            "count" : 120,
            "type" : "SCALAR"
        }
    ],
    "bufferViews" : [
        {
            "buffer" : 0,
            "byteLength" : 220752,
            "byteOffset" : 0
        },
        {
            "buffer" : 0,
            "byteLength" : 220752,
            "byteOffset" : 220752
        },
        {
            "buffer" : 0,
            "byteLength" : 147168,
            "byteOffset" : 441504
        },
        {
            "buffer" : 0,
            "byteLength" : 66360,
            "byteOffset" : 588672
        },
        {
            "buffer" : 0,
            "byteLength" : 153264,
            "byteOffset" : 655032
        },
        {
            "buffer" : 0,
            "byteLength" : 153264,
            "byteOffset" : 808296
        },
        {
            "buffer" : 0,
            "byteLength" : 102176,
            "byteOffset" : 961560
        },
        {
            "buffer" : 0,
            "byteLength" : 46056,
            "byteOffset" : 1063736
        },
        {
            "buffer" : 0,
            "byteLength" : 196416,
            "byteOffset" : 1109792
        },
        {
            "buffer" : 0,
            "byteLength" : 196416,
            "byteOffset" : 1306208
        },
        {
            "buffer" : 0,
            "byteLength" : 130944,
            "byteOffset" : 1502624
        },
        {
            "buffer" : 0,
            "byteLength" : 58824,
            "byteOffset" : 1633568
        },
        {
            "buffer" : 0,
            "byteLength" : 98208,
            "byteOffset" : 1692392
        },
        {
            "buffer" : 0,
            "byteLength" : 98208,
            "byteOffset" : 1790600
        },
        {
            "buffer" : 0,
            "byteLength" : 65472,
            "byteOffset" : 1888808
        },
        {
            "buffer" : 0,
            "byteLength" : 29088,
            "byteOffset" : 1954280
        },
        {
            "buffer" : 0,
            "byteLength" : 98496,
            "byteOffset" : 1983368
        },
        {
            "buffer" : 0,
            "byteLength" : 98496,
            "byteOffset" : 2081864
        },
        {
            "buffer" : 0,
            "byteLength" : 65664,
            "byteOffset" : 2180360
        },
        {
            "buffer" : 0,
            "byteLength" : 30240,
            "byteOffset" : 2246024
        },
        {
            "buffer" : 0,
            "byteLength" : 126336,
            "byteOffset" : 2276264
        },
        {
            "buffer" : 0,
            "byteLength" : 126336,
            "byteOffset" : 2402600
        },
        {
            "buffer" : 0,
            "byteLength" : 84224,
            "byteOffset" : 2528936
        },
        {
            "buffer" : 0,
            "byteLength" : 37824,
            "byteOffset" : 2613160
        },
        {
            "buffer" : 0,
            "byteLength" : 96,
            "byteOffset" : 2650984
        },
        {
            "buffer" : 0,
            "byteLength" : 96,
            "byteOffset" : 2651080
        },
        {
            "buffer" : 0,
            "byteLength" : 64,
            "byteOffset" : 2651176
        },
        {
            "buffer" : 0,
            "byteLength" : 24,
            "byteOffset" : 2651240
        },
        {
            "buffer" : 0,
            "byteLength" : 1056,
            "byteOffset" : 2651264
        },
        {
            "buffer" : 0,
            "byteLength" : 1056,
            "byteOffset" : 2652320
        },
        {
            "buffer" : 0,
            "byteLength" : 704,
            "byteOffset" : 2653376
        },
        {
            "buffer" : 0,
            "byteLength" : 240,
            "byteOffset" : 2654080
        }
    ],
    "buffers" : [
        {
            "byteLength" : 2654320,
            "uri" : "data:application/octet-stream;base64,"
        }
    ]
}
