{
    "asset" : {
        "generator" : "Khronos glTF Blender I/O v1.7.33",
        "version" : "2.0"
    },
    "scene" : 0,
    "scenes" : [
        {
            "name" : "Scene",
            "nodes" : [
                0,
                1
            ]
        }
    ],
    "nodes" : [
        {
            "mesh" : 0,
            "name" : "Text",
            "rotation" : [
                0.7071068286895752,
                0,
                0,
                0.7071068286895752
            ],
            "scale" : [
                0.5986678004264832,
                0.5986678004264832,
                0.5986678004264832
            ],
            "translation" : [
                0.05541659891605377,
                0.4752931594848633,
                0
            ]
        },
        {
            "mesh" : 1,
            "name" : "Cube",
            "scale" : [
                1.1563245058059692,
                0.9327298402786255,
                1
            ],
            "translation" : [
                0,
                -0.3916226029396057,
                0
            ]
        }
    ],
    "materials" : [
        {
            "doubleSided" : true,
            "name" : "Material.010",
            "pbrMetallicRoughness" : {
                "baseColorFactor" : [
                    0.9692263007164001,
                    0.9619611501693726,
                    1,
                    1
                ],
                "metallicFactor" : 0,
                "roughnessFactor" : 0.5
            }
        },
        {
            "doubleSided" : true,
            "name" : "Material.008",
            "pbrMetallicRoughness" : {
                "baseColorFactor" : [
                    0,
                    0,
                    0,
                    1
                ],
                "metallicFactor" : 0,
                "roughnessFactor" : 0.5
            }
        },
        {
            "doubleSided" : true,
            "name" : "Material.009",
            "pbrMetallicRoughness" : {
                "baseColorFactor" : [
                    0.9692263007164001,
                    0.9619611501693726,
                    1,
                    1
                ],
                "metallicFactor" : 0,
                "roughnessFactor" : 0.5
            }
        }
    ],
    "meshes" : [
        {
            "name" : "Curve",
            "primitives" : [
                {
                    "attributes" : {
                        "POSITION" : 0,
                        "NORMAL" : 1,
                        "TEXCOORD_0" : 2
                    },
                    "indices" : 3,
                    "material" : 0
                }
            ]
        },
        {
            "name" : "Cube.001",
            "primitives" : [
                {
                    "attributes" : {
                        "POSITION" : 4,
                        "NORMAL" : 5,
                        "TEXCOORD_0" : 6
                    },
                    "indices" : 7,
                    "material" : 1
                },
                {
                    "attributes" : {
                        "POSITION" : 8,
                        "NORMAL" : 9,
                        "TEXCOORD_0" : 10
                    },
                    "indices" : 11,
                    "material" : 2
                }
            ]
        }
    ],
    "accessors" : [
        {
            "bufferView" : 0,
            "componentType" : 5126,
            "count" : 74550,
            "max" : [
                2.6960177421569824,
                0.08999999612569809,
                1.0831856727600098
            ],
            "min" : [
                -2.470907211303711,
                -0.08999999612569809,
                -0.8683628439903259
            ],
            "type" : "VEC3"
        },
        {
            "bufferView" : 1,
            "componentType" : 5126,
            "count" : 74550,
            "type" : "VEC3"
        },
        {
            "bufferView" : 2,
            "componentType" : 5126,
            "count" : 74550,
            "type" : "VEC2"
        },
        {
            "bufferView" : 3,
            "componentType" : 5125,
            "count" : 134196,
            "type" : "SCALAR"
        },
        {
            "bufferView" : 4,
            "componentType" : 5126,
            "count" : 8,
            "max" : [
                1.771679162979126,
                1.7263437509536743,
                0.015552319586277008
            ],
            "min" : [
                -1.651879072189331,
                -0.11515820771455765,
                -0.05633160471916199
            ],
            "type" : "VEC3"
        },
        {
            "bufferView" : 5,
            "componentType" : 5126,
            "count" : 8,
            "type" : "VEC3"
        },
        {
            "bufferView" : 6,
            "componentType" : 5126,
            "count" : 8,
            "type" : "VEC2"
        },
        {
            "bufferView" : 7,
            "componentType" : 5123,
            "count" : 12,
            "type" : "SCALAR"
        },
        {
            "bufferView" : 8,
            "componentType" : 5126,
            "count" : 88,
            "max" : [
                1.8509281873703003,
                1.8055927753448486,
                0.022917471826076508
            ],
            "min" : [
                -1.7311280965805054,
                -0.19440728425979614,
                -0.06369675695896149
            ],
            "type" : "VEC3"
        },
        {
            "bufferView" : 9,
            "componentType" : 5126,
            "count" : 88,
            "type" : "VEC3"
        },
        {
            "bufferView" : 10,
            "componentType" : 5126,
            "count" : 88,
            "type" : "VEC2"
        },
        {
            "bufferView" : 11,
            "componentType" : 5123,
            "count" : 120,
            "type" : "SCALAR"
        }
    ],
    "bufferViews" : [
        {
            "buffer" : 0,
            "byteLength" : 894600,
            "byteOffset" : 0
        },
        {
            "buffer" : 0,
            "byteLength" : 894600,
            "byteOffset" : 894600
        },
        {
            "buffer" : 0,
            "byteLength" : 596400,
            "byteOffset" : 1789200
        },
        {
            "buffer" : 0,
            "byteLength" : 536784,
            "byteOffset" : 2385600
        },
        {
            "buffer" : 0,
            "byteLength" : 96,
            "byteOffset" : 2922384
        },
        {
            "buffer" : 0,
            "byteLength" : 96,
            "byteOffset" : 2922480
        },
        {
            "buffer" : 0,
            "byteLength" : 64,
            "byteOffset" : 2922576
        },
        {
            "buffer" : 0,
            "byteLength" : 24,
            "byteOffset" : 2922640
        },
        {
            "buffer" : 0,
            "byteLength" : 1056,
            "byteOffset" : 2922664
        },
        {
            "buffer" : 0,
            "byteLength" : 1056,
            "byteOffset" : 2923720
        },
        {
            "buffer" : 0,
            "byteLength" : 704,
            "byteOffset" : 2924776
        },
        {
            "buffer" : 0,
            "byteLength" : 240,
            "byteOffset" : 2925480
        }
    ],
    "buffers" : [
        {
            "byteLength" : 2925720,
            "uri" : "data:application/octet-stream;base64,"
        }
    ]
}
