{
    "asset" : {
        "generator" : "Khronos glTF Blender I/O v1.7.33",
        "version" : "2.0"
    },
    "scene" : 0,
    "scenes" : [
        {
            "name" : "Scene",
            "nodes" : [
                0
            ]
        }
    ],
    "nodes" : [
        {
            "mesh" : 0,
            "name" : "Plane.005",
            "translation" : [
                -10.053513526916504,
                0,
                0
            ]
        }
    ],
    "materials" : [
        {
            "doubleSided" : true,
            "name" : "Material.005",
            "pbrMetallicRoughness" : {
                "baseColorFactor" : [
                    1,
                    0,
                    0.0005502086714841425,
                    1
                ],
                "metallicFactor" : 0,
                "roughnessFactor" : 0.5
            }
        },
        {
            "doubleSided" : true,
            "name" : "Material.010",
            "pbrMetallicRoughness" : {
                "baseColorFactor" : [
                    0.7589930295944214,
                    0,
                    1,
                    1
                ],
                "metallicFactor" : 0,
                "roughnessFactor" : 0.5
            }
        },
        {
            "doubleSided" : true,
            "name" : "Material.006",
            "pbrMetallicRoughness" : {
                "baseColorFactor" : [
                    1,
                    0.17466875910758972,
                    0,
                    1
                ],
                "metallicFactor" : 0,
                "roughnessFactor" : 0.5
            }
        },
        {
            "doubleSided" : true,
            "name" : "Material.007",
            "pbrMetallicRoughness" : {
                "baseColorFactor" : [
                    0.8000000715255737,
                    0.5832348465919495,
                    0,
                    1
                ],
                "metallicFactor" : 0,
                "roughnessFactor" : 0.5
            }
        },
        {
            "doubleSided" : true,
            "name" : "Material.008",
            "pbrMetallicRoughness" : {
                "baseColorFactor" : [
                    0.04938620328903198,
                    0.8000000715255737,
                    0,
                    1
                ],
                "metallicFactor" : 0,
                "roughnessFactor" : 0.5
            }
        },
        {
            "doubleSided" : true,
            "name" : "Material.009",
            "pbrMetallicRoughness" : {
                "baseColorFactor" : [
                    0,
                    0.7943443655967712,
                    0.8000000715255737,
                    1
                ],
                "metallicFactor" : 0,
                "roughnessFactor" : 0.5
            }
        }
    ],
    "meshes" : [
        {
            "name" : "Plane.008",
            "primitives" : [
                {
                    "attributes" : {
                        "POSITION" : 0,
                        "NORMAL" : 1,
                        "TEXCOORD_0" : 2
                    },
                    "indices" : 3,
                    "material" : 0
                },
                {
                    "attributes" : {
                        "POSITION" : 4,
                        "NORMAL" : 5,
                        "TEXCOORD_0" : 6
                    },
                    "indices" : 7,
                    "material" : 1
                },
                {
                    "attributes" : {
                        "POSITION" : 8,
                        "NORMAL" : 9,
                        "TEXCOORD_0" : 10
                    },
                    "indices" : 11,
                    "material" : 2
                },
                {
                    "attributes" : {
                        "POSITION" : 12,
                        "NORMAL" : 13,
                        "TEXCOORD_0" : 14
                    },
                    "indices" : 15,
                    "material" : 3
                },
                {
                    "attributes" : {
                        "POSITION" : 16,
                        "NORMAL" : 17,
                        "TEXCOORD_0" : 18
                    },
                    "indices" : 19,
                    "material" : 4
                },
                {
                    "attributes" : {
                        "POSITION" : 20,
                        "NORMAL" : 21,
                        "TEXCOORD_0" : 22
                    },
                    "indices" : 23,
                    "material" : 5
                }
            ]
        }
    ],
    "accessors" : [
        {
            "bufferView" : 0,
            "componentType" : 5126,
            "count" : 3914,
            "max" : [
                11.053513526916504,
                1.34666907787323,
                1
            ],
            "min" : [
                9.053513526916504,
                -0.6312012076377869,
                -3
            ],
            "type" : "VEC3"
        },
        {
            "bufferView" : 1,
            "componentType" : 5126,
            "count" : 3914,
            "type" : "VEC3"
        },
        {
            "bufferView" : 2,
            "componentType" : 5126,
            "count" : 3914,
            "type" : "VEC2"
        },
        {
            "bufferView" : 3,
            "componentType" : 5123,
            "count" : 6144,
            "type" : "SCALAR"
        },
        {
            "bufferView" : 4,
            "componentType" : 5126,
            "count" : 3989,
            "max" : [
                1,
                1.34666907787323,
                1
            ],
            "min" : [
                -1,
                -0.6312133073806763,
                -3
            ],
            "type" : "VEC3"
        },
        {
            "bufferView" : 5,
            "componentType" : 5126,
            "count" : 3989,
            "type" : "VEC3"
        },
        {
            "bufferView" : 6,
            "componentType" : 5126,
            "count" : 3989,
            "type" : "VEC2"
        },
        {
            "bufferView" : 7,
            "componentType" : 5123,
            "count" : 6144,
            "type" : "SCALAR"
        },
        {
            "bufferView" : 8,
            "componentType" : 5126,
            "count" : 3893,
            "max" : [
                9.050931930541992,
                1.34666907787323,
                1
            ],
            "min" : [
                7.050931930541992,
                -0.6312114000320435,
                -3
            ],
            "type" : "VEC3"
        },
        {
            "bufferView" : 9,
            "componentType" : 5126,
            "count" : 3893,
            "type" : "VEC3"
        },
        {
            "bufferView" : 10,
            "componentType" : 5126,
            "count" : 3893,
            "type" : "VEC2"
        },
        {
            "bufferView" : 11,
            "componentType" : 5123,
            "count" : 6144,
            "type" : "SCALAR"
        },
        {
            "bufferView" : 12,
            "componentType" : 5126,
            "count" : 3917,
            "max" : [
                7.04689359664917,
                1.34666907787323,
                1
            ],
            "min" : [
                5.04689359664917,
                -0.6312133073806763,
                -3
            ],
            "type" : "VEC3"
        },
        {
            "bufferView" : 13,
            "componentType" : 5126,
            "count" : 3917,
            "type" : "VEC3"
        },
        {
            "bufferView" : 14,
            "componentType" : 5126,
            "count" : 3917,
            "type" : "VEC2"
        },
        {
            "bufferView" : 15,
            "componentType" : 5123,
            "count" : 6144,
            "type" : "SCALAR"
        },
        {
            "bufferView" : 16,
            "componentType" : 5126,
            "count" : 3918,
            "max" : [
                5.038257598876953,
                1.34666907787323,
                1
            ],
            "min" : [
                3.038257598876953,
                -0.6305041909217834,
                -3
            ],
            "type" : "VEC3"
        },
        {
            "bufferView" : 17,
            "componentType" : 5126,
            "count" : 3918,
            "type" : "VEC3"
        },
        {
            "bufferView" : 18,
            "componentType" : 5126,
            "count" : 3918,
            "type" : "VEC2"
        },
        {
            "bufferView" : 19,
            "componentType" : 5123,
            "count" : 6144,
            "type" : "SCALAR"
        },
        {
            "bufferView" : 20,
            "componentType" : 5126,
            "count" : 3896,
            "max" : [
                3.016148567199707,
                1.34666907787323,
                1
            ],
            "min" : [
                1.016148567199707,
                -0.6290509700775146,
                -3
            ],
            "type" : "VEC3"
        },
        {
            "bufferView" : 21,
            "componentType" : 5126,
            "count" : 3896,
            "type" : "VEC3"
        },
        {
            "bufferView" : 22,
            "componentType" : 5126,
            "count" : 3896,
            "type" : "VEC2"
        },
        {
            "bufferView" : 23,
            "componentType" : 5123,
            "count" : 6144,
            "type" : "SCALAR"
        }
    ],
    "bufferViews" : [
        {
            "buffer" : 0,
            "byteLength" : 46968,
            "byteOffset" : 0
        },
        {
            "buffer" : 0,
            "byteLength" : 46968,
            "byteOffset" : 46968
        },
        {
            "buffer" : 0,
            "byteLength" : 31312,
            "byteOffset" : 93936
        },
        {
            "buffer" : 0,
            "byteLength" : 12288,
            "byteOffset" : 125248
        },
        {
            "buffer" : 0,
            "byteLength" : 47868,
            "byteOffset" : 137536
        },
        {
            "buffer" : 0,
            "byteLength" : 47868,
            "byteOffset" : 185404
        },
        {
            "buffer" : 0,
            "byteLength" : 31912,
            "byteOffset" : 233272
        },
        {
            "buffer" : 0,
            "byteLength" : 12288,
            "byteOffset" : 265184
        },
        {
            "buffer" : 0,
            "byteLength" : 46716,
            "byteOffset" : 277472
        },
        {
            "buffer" : 0,
            "byteLength" : 46716,
            "byteOffset" : 324188
        },
        {
            "buffer" : 0,
            "byteLength" : 31144,
            "byteOffset" : 370904
        },
        {
            "buffer" : 0,
            "byteLength" : 12288,
            "byteOffset" : 402048
        },
        {
            "buffer" : 0,
            "byteLength" : 47004,
            "byteOffset" : 414336
        },
        {
            "buffer" : 0,
            "byteLength" : 47004,
            "byteOffset" : 461340
        },
        {
            "buffer" : 0,
            "byteLength" : 31336,
            "byteOffset" : 508344
        },
        {
            "buffer" : 0,
            "byteLength" : 12288,
            "byteOffset" : 539680
        },
        {
            "buffer" : 0,
            "byteLength" : 47016,
            "byteOffset" : 551968
        },
        {
            "buffer" : 0,
            "byteLength" : 47016,
            "byteOffset" : 598984
        },
        {
            "buffer" : 0,
            "byteLength" : 31344,
            "byteOffset" : 646000
        },
        {
            "buffer" : 0,
            "byteLength" : 12288,
            "byteOffset" : 677344
        },
        {
            "buffer" : 0,
            "byteLength" : 46752,
            "byteOffset" : 689632
        },
        {
            "buffer" : 0,
            "byteLength" : 46752,
            "byteOffset" : 736384
        },
        {
            "buffer" : 0,
            "byteLength" : 31168,
            "byteOffset" : 783136
        },
        {
            "buffer" : 0,
            "byteLength" : 12288,
            "byteOffset" : 814304
        }
    ],
    "buffers" : [
        {
            "byteLength" : 826592,
            "uri" : "data:application/octet-stream;base64,"
        }
    ]
}
