{
    "asset" : {
        "generator" : "Khronos glTF Blender I/O v1.7.33",
        "version" : "2.0"
    },
    "scene" : 0,
    "scenes" : [
        {
            "name" : "Scene",
            "nodes" : [
                0
            ]
        }
    ],
    "nodes" : [
        {
            "mesh" : 0,
            "name" : "Plane.005",
            "translation" : [
                6.019316673278809,
                -0.39800214767456055,
                -5.459040403366089e-05
            ]
        }
    ],
    "materials" : [
        {
            "doubleSided" : true,
            "name" : "Material.005",
            "pbrMetallicRoughness" : {
                "baseColorFactor" : [
                    1,
                    0,
                    0.0005502086714841425,
                    1
                ],
                "metallicFactor" : 0,
                "roughnessFactor" : 0.5
            }
        },
        {
            "doubleSided" : true,
            "name" : "Material.010",
            "pbrMetallicRoughness" : {
                "baseColorFactor" : [
                    0.7589930295944214,
                    0,
                    1,
                    1
                ],
                "metallicFactor" : 0,
                "roughnessFactor" : 0.5
            }
        },
        {
            "doubleSided" : true,
            "name" : "Material.006",
            "pbrMetallicRoughness" : {
                "baseColorFactor" : [
                    1,
                    0.17466875910758972,
                    0,
                    1
                ],
                "metallicFactor" : 0,
                "roughnessFactor" : 0.5
            }
        },
        {
            "doubleSided" : true,
            "name" : "Material.007",
            "pbrMetallicRoughness" : {
                "baseColorFactor" : [
                    0.8000000715255737,
                    0.5832348465919495,
                    0,
                    1
                ],
                "metallicFactor" : 0,
                "roughnessFactor" : 0.5
            }
        },
        {
            "doubleSided" : true,
            "name" : "Material.008",
            "pbrMetallicRoughness" : {
                "baseColorFactor" : [
                    0.04938620328903198,
                    0.8000000715255737,
                    0,
                    1
                ],
                "metallicFactor" : 0,
                "roughnessFactor" : 0.5
            }
        },
        {
            "doubleSided" : true,
            "name" : "Material.009",
            "pbrMetallicRoughness" : {
                "baseColorFactor" : [
                    0,
                    0.7943443655967712,
                    0.8000000715255737,
                    1
                ],
                "metallicFactor" : 0,
                "roughnessFactor" : 0.5
            }
        }
    ],
    "meshes" : [
        {
            "name" : "Plane.008",
            "primitives" : [
                {
                    "attributes" : {
                        "POSITION" : 0,
                        "NORMAL" : 1,
                        "TEXCOORD_0" : 2
                    },
                    "indices" : 3,
                    "material" : 0
                },
                {
                    "attributes" : {
                        "POSITION" : 4,
                        "NORMAL" : 5,
                        "TEXCOORD_0" : 6
                    },
                    "indices" : 7,
                    "material" : 1
                },
                {
                    "attributes" : {
                        "POSITION" : 8,
                        "NORMAL" : 9,
                        "TEXCOORD_0" : 10
                    },
                    "indices" : 11,
                    "material" : 2
                },
                {
                    "attributes" : {
                        "POSITION" : 12,
                        "NORMAL" : 13,
                        "TEXCOORD_0" : 14
                    },
                    "indices" : 15,
                    "material" : 3
                },
                {
                    "attributes" : {
                        "POSITION" : 16,
                        "NORMAL" : 17,
                        "TEXCOORD_0" : 18
                    },
                    "indices" : 19,
                    "material" : 4
                },
                {
                    "attributes" : {
                        "POSITION" : 20,
                        "NORMAL" : 21,
                        "TEXCOORD_0" : 22
                    },
                    "indices" : 23,
                    "material" : 5
                }
            ]
        }
    ],
    "accessors" : [
        {
            "bufferView" : 0,
            "componentType" : 5126,
            "count" : 3983,
            "max" : [
                -0.00011444091796875,
                1.918642520904541,
                2.0000545978546143
            ],
            "min" : [
                -2.0001144409179688,
                -0.059227824211120605,
                -1.9999455213546753
            ],
            "type" : "VEC3"
        },
        {
            "bufferView" : 1,
            "componentType" : 5126,
            "count" : 3983,
            "type" : "VEC3"
        },
        {
            "bufferView" : 2,
            "componentType" : 5126,
            "count" : 3983,
            "type" : "VEC2"
        },
        {
            "bufferView" : 3,
            "componentType" : 5123,
            "count" : 6144,
            "type" : "SCALAR"
        },
        {
            "bufferView" : 4,
            "componentType" : 5126,
            "count" : 3893,
            "max" : [
                -10.053628921508789,
                1.918642520904541,
                2.0000545978546143
            ],
            "min" : [
                -12.053628921508789,
                -0.05923992395401001,
                -1.9999455213546753
            ],
            "type" : "VEC3"
        },
        {
            "bufferView" : 5,
            "componentType" : 5126,
            "count" : 3893,
            "type" : "VEC3"
        },
        {
            "bufferView" : 6,
            "componentType" : 5126,
            "count" : 3893,
            "type" : "VEC2"
        },
        {
            "bufferView" : 7,
            "componentType" : 5123,
            "count" : 6144,
            "type" : "SCALAR"
        },
        {
            "bufferView" : 8,
            "componentType" : 5126,
            "count" : 3882,
            "max" : [
                -2.0026960372924805,
                1.918642520904541,
                2.0000545978546143
            ],
            "min" : [
                -4.0026960372924805,
                -0.0592380166053772,
                -1.9999455213546753
            ],
            "type" : "VEC3"
        },
        {
            "bufferView" : 9,
            "componentType" : 5126,
            "count" : 3882,
            "type" : "VEC3"
        },
        {
            "bufferView" : 10,
            "componentType" : 5126,
            "count" : 3882,
            "type" : "VEC2"
        },
        {
            "bufferView" : 11,
            "componentType" : 5123,
            "count" : 6144,
            "type" : "SCALAR"
        },
        {
            "bufferView" : 12,
            "componentType" : 5126,
            "count" : 3906,
            "max" : [
                -4.006734371185303,
                1.918642520904541,
                2.0000545978546143
            ],
            "min" : [
                -6.006734371185303,
                -0.05923992395401001,
                -1.9999455213546753
            ],
            "type" : "VEC3"
        },
        {
            "bufferView" : 13,
            "componentType" : 5126,
            "count" : 3906,
            "type" : "VEC3"
        },
        {
            "bufferView" : 14,
            "componentType" : 5126,
            "count" : 3906,
            "type" : "VEC2"
        },
        {
            "bufferView" : 15,
            "componentType" : 5123,
            "count" : 6144,
            "type" : "SCALAR"
        },
        {
            "bufferView" : 16,
            "componentType" : 5126,
            "count" : 3912,
            "max" : [
                -6.0153703689575195,
                1.918642520904541,
                2.0000545978546143
            ],
            "min" : [
                -8.01537036895752,
                -0.05853080749511719,
                -1.9999455213546753
            ],
            "type" : "VEC3"
        },
        {
            "bufferView" : 17,
            "componentType" : 5126,
            "count" : 3912,
            "type" : "VEC3"
        },
        {
            "bufferView" : 18,
            "componentType" : 5126,
            "count" : 3912,
            "type" : "VEC2"
        },
        {
            "bufferView" : 19,
            "componentType" : 5123,
            "count" : 6144,
            "type" : "SCALAR"
        },
        {
            "bufferView" : 20,
            "componentType" : 5126,
            "count" : 3862,
            "max" : [
                -8.037479400634766,
                1.918642520904541,
                2.0000545978546143
            ],
            "min" : [
                -10.037479400634766,
                -0.05707758665084839,
                -1.9999455213546753
            ],
            "type" : "VEC3"
        },
        {
            "bufferView" : 21,
            "componentType" : 5126,
            "count" : 3862,
            "type" : "VEC3"
        },
        {
            "bufferView" : 22,
            "componentType" : 5126,
            "count" : 3862,
            "type" : "VEC2"
        },
        {
            "bufferView" : 23,
            "componentType" : 5123,
            "count" : 6144,
            "type" : "SCALAR"
        }
    ],
    "bufferViews" : [
        {
            "buffer" : 0,
            "byteLength" : 47796,
            "byteOffset" : 0
        },
        {
            "buffer" : 0,
            "byteLength" : 47796,
            "byteOffset" : 47796
        },
        {
            "buffer" : 0,
            "byteLength" : 31864,
            "byteOffset" : 95592
        },
        {
            "buffer" : 0,
            "byteLength" : 12288,
            "byteOffset" : 127456
        },
        {
            "buffer" : 0,
            "byteLength" : 46716,
            "byteOffset" : 139744
        },
        {
            "buffer" : 0,
            "byteLength" : 46716,
            "byteOffset" : 186460
        },
        {
            "buffer" : 0,
            "byteLength" : 31144,
            "byteOffset" : 233176
        },
        {
            "buffer" : 0,
            "byteLength" : 12288,
            "byteOffset" : 264320
        },
        {
            "buffer" : 0,
            "byteLength" : 46584,
            "byteOffset" : 276608
        },
        {
            "buffer" : 0,
            "byteLength" : 46584,
            "byteOffset" : 323192
        },
        {
            "buffer" : 0,
            "byteLength" : 31056,
            "byteOffset" : 369776
        },
        {
            "buffer" : 0,
            "byteLength" : 12288,
            "byteOffset" : 400832
        },
        {
            "buffer" : 0,
            "byteLength" : 46872,
            "byteOffset" : 413120
        },
        {
            "buffer" : 0,
            "byteLength" : 46872,
            "byteOffset" : 459992
        },
        {
            "buffer" : 0,
            "byteLength" : 31248,
            "byteOffset" : 506864
        },
        {
            "buffer" : 0,
            "byteLength" : 12288,
            "byteOffset" : 538112
        },
        {
            "buffer" : 0,
            "byteLength" : 46944,
            "byteOffset" : 550400
        },
        {
            "buffer" : 0,
            "byteLength" : 46944,
            "byteOffset" : 597344
        },
        {
            "buffer" : 0,
            "byteLength" : 31296,
            "byteOffset" : 644288
        },
        {
            "buffer" : 0,
            "byteLength" : 12288,
            "byteOffset" : 675584
        },
        {
            "buffer" : 0,
            "byteLength" : 46344,
            "byteOffset" : 687872
        },
        {
            "buffer" : 0,
            "byteLength" : 46344,
            "byteOffset" : 734216
        },
        {
            "buffer" : 0,
            "byteLength" : 30896,
            "byteOffset" : 780560
        },
        {
            "buffer" : 0,
            "byteLength" : 12288,
            "byteOffset" : 811456
        }
    ],
    "buffers" : [
        {
            "byteLength" : 823744,
            "uri" : "data:application/octet-stream;base64,"
        }
    ]
}
