{
    "asset" : {
        "generator" : "Khronos glTF Blender I/O v1.7.33",
        "version" : "2.0"
    },
    "scene" : 0,
    "scenes" : [
        {
            "name" : "Scene",
            "nodes" : [
                0
            ]
        }
    ],
    "nodes" : [
        {
            "mesh" : 0,
            "name" : "Cylinder.001",
            "rotation" : [
                0,
                0,
                -0.7071067690849304,
                0.7071068286895752
            ],
            "scale" : [
                0.2167544960975647,
                1.7631341218948364,
                0.2167544960975647
            ]
        }
    ],
    "materials" : [
        {
            "doubleSided" : true,
            "name" : "Material.001",
            "pbrMetallicRoughness" : {
                "baseColorFactor" : [
                    0.0049271476455032825,
                    0,
                    0.02316868118941784,
                    1
                ],
                "roughnessFactor" : 0
            }
        },
        {
            "doubleSided" : true,
            "emissiveFactor" : [
                0.622807502746582,
                0,
                0.24913203716278076
            ],
            "name" : "Material.002",
            "pbrMetallicRoughness" : {
                "baseColorFactor" : [
                    0,
                    0,
                    0,
                    1
                ],
                "metallicFactor" : 0,
                "roughnessFactor" : 0.5
            }
        }
    ],
    "meshes" : [
        {
            "name" : "Cylinder.001",
            "primitives" : [
                {
                    "attributes" : {
                        "POSITION" : 0,
                        "NORMAL" : 1,
                        "TEXCOORD_0" : 2
                    },
                    "indices" : 3,
                    "material" : 0
                },
                {
                    "attributes" : {
                        "POSITION" : 4,
                        "NORMAL" : 5,
                        "TEXCOORD_0" : 6
                    },
                    "indices" : 7,
                    "material" : 1
                }
            ]
        }
    ],
    "accessors" : [
        {
            "bufferView" : 0,
            "componentType" : 5126,
            "count" : 4856,
            "max" : [
                1,
                1,
                1
            ],
            "min" : [
                -1,
                -1,
                -1
            ],
            "type" : "VEC3"
        },
        {
            "bufferView" : 1,
            "componentType" : 5126,
            "count" : 4856,
            "type" : "VEC3"
        },
        {
            "bufferView" : 2,
            "componentType" : 5126,
            "count" : 4856,
            "type" : "VEC2"
        },
        {
            "bufferView" : 3,
            "componentType" : 5123,
            "count" : 9012,
            "type" : "SCALAR"
        },
        {
            "bufferView" : 4,
            "componentType" : 5126,
            "count" : 45295,
            "max" : [
                1.0249849557876587,
                1.0010285377502441,
                1.0249849557876587
            ],
            "min" : [
                -1.0249849557876587,
                -1.0010285377502441,
                -1.0249849557876587
            ],
            "type" : "VEC3"
        },
        {
            "bufferView" : 5,
            "componentType" : 5126,
            "count" : 45295,
            "type" : "VEC3"
        },
        {
            "bufferView" : 6,
            "componentType" : 5126,
            "count" : 45295,
            "type" : "VEC2"
        },
        {
            "bufferView" : 7,
            "componentType" : 5123,
            "count" : 71424,
            "type" : "SCALAR"
        }
    ],
    "bufferViews" : [
        {
            "buffer" : 0,
            "byteLength" : 58272,
            "byteOffset" : 0
        },
        {
            "buffer" : 0,
            "byteLength" : 58272,
            "byteOffset" : 58272
        },
        {
            "buffer" : 0,
            "byteLength" : 38848,
            "byteOffset" : 116544
        },
        {
            "buffer" : 0,
            "byteLength" : 18024,
            "byteOffset" : 155392
        },
        {
            "buffer" : 0,
            "byteLength" : 543540,
            "byteOffset" : 173416
        },
        {
            "buffer" : 0,
            "byteLength" : 543540,
            "byteOffset" : 716956
        },
        {
            "buffer" : 0,
            "byteLength" : 362360,
            "byteOffset" : 1260496
        },
        {
            "buffer" : 0,
            "byteLength" : 142848,
            "byteOffset" : 1622856
        }
    ],
    "buffers" : [
        {
            "byteLength" : 1765704,
            "uri" : "data:application/octet-stream;base64,"
        }
    ]
}
